<svg width="20" height="20" viewBox="0 0 20 20" fill="none" xmlns="http://www.w3.org/2000/svg">
<path fill-rule="evenodd" clip-rule="evenodd" d="M0.931541 0.931236C1.28427 0.578504 1.85616 0.578504 2.2089 0.931236L10.0003 8.72267L17.7918 0.931236C18.1445 0.578504 18.7164 0.578504 19.0691 0.931236C19.4218 1.28397 19.4218 1.85586 19.0691 2.20859L11.2777 10L19.0691 17.7915C19.4218 18.1442 19.4218 18.7161 19.0691 19.0688C18.7164 19.4215 18.1445 19.4215 17.7918 19.0688L10.0003 11.2774L2.2089 19.0688C1.85616 19.4215 1.28427 19.4215 0.931541 19.0688C0.578809 18.7161 0.578809 18.1442 0.931541 17.7915L8.72297 10L0.931541 2.20859C0.578809 1.85586 0.578809 1.28397 0.931541 0.931236Z" fill="#030D45"/>
</svg>
