<svg width="17" height="17" viewBox="0 0 17 17" fill="none" xmlns="http://www.w3.org/2000/svg">
<path fill-rule="evenodd" clip-rule="evenodd" d="M1.10352 7.60802C2.88372 11.4853 6.05114 14.5681 9.98916 16.2397L10.6838 16.5491C12.1697 17.2112 13.9163 16.741 14.869 15.4224L16.0372 13.8056C16.5367 13.1144 16.408 12.1531 15.7442 11.6176L13.7048 9.97238C12.9952 9.39987 11.9517 9.53322 11.4088 10.2658L10.954 10.8795C8.94243 9.84283 7.29941 8.19981 6.26274 6.18828L6.87645 5.73348C7.60901 5.19059 7.74236 4.14706 7.16985 3.4374L5.52439 1.39778C4.98906 0.734211 4.02819 0.605323 3.33691 1.10436L1.71139 2.27784C0.384076 3.23605 -0.0833583 4.99734 0.59415 6.48761L1.10244 7.60568L1.10352 7.60802ZM10.5317 14.9762C6.90746 13.4394 3.99202 10.603 2.35364 7.03547L2.3531 7.03428L1.84587 5.91855C1.43936 5.02439 1.71982 3.96761 2.51621 3.39269L4.14173 2.21921C4.24048 2.14792 4.37775 2.16633 4.45423 2.26113L6.09968 4.30075C6.18147 4.40213 6.16242 4.55121 6.05777 4.62876L4.98676 5.42247C4.72665 5.61523 4.63627 5.96333 4.76975 6.25828C5.99619 8.96832 8.17392 11.1461 10.884 12.3725C11.1789 12.506 11.527 12.4156 11.7198 12.1555L12.5135 11.0845C12.591 10.9798 12.7401 10.9608 12.8415 11.0425L14.8808 12.6878C14.9757 12.7643 14.994 12.9016 14.9227 13.0004L13.7545 14.6171C13.1829 15.4083 12.1349 15.6904 11.2434 15.2932L10.5432 14.9811L10.5317 14.9762Z" fill="black"/>
<path d="M9.60423 6.25046C9.60423 6.43279 9.67666 6.60766 9.80559 6.73659C9.93452 6.86552 10.1094 6.93796 10.2917 6.93796H13.8011C14.1808 6.93796 14.4886 6.63015 14.4886 6.25046C14.4886 5.87076 14.1808 5.56296 13.8011 5.56296H11.9515L14.8473 2.6672C15.1157 2.39871 15.1157 1.96341 14.8473 1.69492C14.5788 1.42644 14.1435 1.42644 13.875 1.69492L10.9792 4.59068V2.74106C10.9792 2.36137 10.6714 2.05356 10.2917 2.05356C9.91203 2.05356 9.60423 2.36137 9.60423 2.74106V6.25046Z" fill="black"/>
</svg>
