<svg width="16" height="19" viewBox="0 0 16 19" fill="none" xmlns="http://www.w3.org/2000/svg">
<path fill-rule="evenodd" clip-rule="evenodd" d="M7.99992 1.4375C4.81356 1.4375 2.27075 3.92833 2.27075 6.95211C2.27075 8.78965 3.02327 10.3744 4.36565 11.3614C4.66151 11.5789 4.91461 11.9033 5.01155 12.3149C5.09111 12.6526 5.18216 13.0642 5.27235 13.5004H10.7275C10.8177 13.0642 10.9087 12.6526 10.9883 12.3149C11.0852 11.9033 11.3383 11.5789 11.6342 11.3614C12.9766 10.3744 13.7291 8.78965 13.7291 6.95211C13.7291 3.92833 11.1863 1.4375 7.99992 1.4375ZM10.4646 14.8754H5.53526C5.63647 15.4599 5.71587 16.0134 5.73991 16.4107C5.76522 16.8291 6.07791 17.204 6.53895 17.3036L6.71859 17.3424C7.56232 17.5247 8.43752 17.5247 9.28125 17.3424L9.46089 17.3036C9.92193 17.204 10.2346 16.8291 10.2599 16.4107C10.284 16.0134 10.3634 15.4599 10.4646 14.8754ZM0.895752 6.95211C0.895752 3.12523 4.09862 0.0625 7.99992 0.0625C11.9012 0.0625 15.1041 3.12523 15.1041 6.95211C15.1041 9.17398 14.1841 11.1932 12.4487 12.4692C12.3695 12.5274 12.3364 12.5886 12.3267 12.6301C12.2181 13.0908 12.086 13.7006 11.9654 14.3194C11.7979 15.1794 11.6615 16.0136 11.6324 16.4938C11.5682 17.5554 10.7871 18.4238 9.75127 18.6476L9.57162 18.6864C8.53651 18.9101 7.46332 18.9101 6.42821 18.6864L6.24857 18.6476C5.21271 18.4238 4.43165 17.5554 4.36742 16.4938C4.33837 16.0136 4.20196 15.1794 4.03441 14.3194C3.91388 13.7006 3.78169 13.0908 3.67317 12.6301C3.6634 12.5886 3.63031 12.5274 3.55116 12.4692C1.81569 11.1932 0.895752 9.17398 0.895752 6.95211Z" fill="black"/>
</svg>
