<svg width="60" height="70" viewBox="0 0 60 70" fill="none" xmlns="http://www.w3.org/2000/svg">
<path d="M10.8124 11.8469C9.9907 13.2985 10.5111 15.1299 11.9765 15.9303C13.4419 16.7442 15.2907 16.2287 16.1124 14.7772C19.0569 9.56786 24.9732 6.63763 31.04 7.53298C39.0243 8.72677 44.5298 16.093 43.3245 24.002C42.133 31.9109 34.683 37.3509 26.7124 36.1706C22.5354 35.5465 18.9198 33.2132 16.6465 29.7811C15.729 28.3974 13.839 28.0039 12.4421 28.9128C11.5519 29.4962 11.0726 30.4593 11.0726 31.436C11.0315 31.6395 11.0041 31.843 11.0041 32.0602L10.9768 44.9341C10.9631 46.6027 12.3189 47.9593 14.0034 47.9593C15.6742 47.9593 17.0437 46.6163 17.0437 44.9613L17.0574 38.6532C19.6321 40.4302 22.5902 41.6376 25.8085 42.126C31.0538 42.8993 36.1209 41.6376 40.2295 38.9516L47.926 46.6163C49.1175 47.7965 51.0349 47.7965 52.2264 46.6163C53.4178 45.4497 53.4178 43.5504 52.24 42.3702L44.7763 34.936C47.1181 32.1551 48.7478 28.7365 49.3368 24.8974C51.0349 13.6919 43.2423 3.25972 31.9439 1.59112C30.8757 1.42832 29.8074 1.34693 28.7392 1.3605C21.3302 1.4012 14.4553 5.38956 10.8124 11.8469Z" fill="#7338AC"/>
<path d="M53.5686 68.783C53.1303 68.5116 52.8016 68.1453 52.5551 67.6706C52.3222 67.2093 52.199 66.6939 52.199 66.1376C52.199 65.5678 52.3222 65.066 52.5551 64.6046C52.8016 64.1434 53.1303 63.7772 53.5686 63.5058C54.0067 63.2346 54.5136 63.0988 55.0887 63.0988C55.5818 63.0988 56.0063 63.1939 56.3624 63.3702C56.7047 63.5601 57.0059 63.8179 57.2252 64.1434V60.8197H58.1152V69.095H57.2252V68.1453C57.0059 68.4574 56.7047 68.7151 56.3624 68.9051C56.0063 69.095 55.5818 69.1899 55.0887 69.1899C54.5136 69.1899 54.0067 69.0543 53.5686 68.783ZM56.3349 68.0776C56.6362 67.8741 56.8691 67.6027 57.0334 67.25C57.1841 66.9109 57.2663 66.5446 57.2663 66.1376C57.2663 65.7306 57.1841 65.3508 57.0334 65.0116C56.8691 64.686 56.6362 64.4148 56.3349 64.1976C56.0337 63.9942 55.6501 63.8992 55.212 63.8992C54.7737 63.8992 54.3903 63.9942 54.0753 64.1976C53.7602 64.4148 53.5137 64.686 53.3494 65.0116C53.185 65.3508 53.1028 65.7306 53.1028 66.1376C53.1028 66.5446 53.185 66.9109 53.3494 67.25C53.5137 67.6027 53.7602 67.8741 54.0753 68.0776C54.3903 68.2811 54.7737 68.3895 55.212 68.3895C55.6501 68.3895 56.0337 68.2811 56.3349 68.0776Z" fill="#7338AC"/>
<path d="M13.6201 19.3625C15.3457 19.3625 16.7563 20.7597 16.7563 22.5097C16.7563 24.2462 15.3457 25.657 13.6201 25.657C11.8808 25.657 10.4702 24.2462 10.4702 22.5097C10.4702 20.7597 11.8808 19.3625 13.6201 19.3625Z" fill="#7338AC"/>
<path d="M11.1138 61.0369H12.0724V62.19H11.1138C11.1138 61.9593 11.1138 61.2674 11.1138 61.0369ZM11.1412 63.1939H12.0314V69.0951H11.1412C11.1412 67.9148 11.1412 64.3741 11.1412 63.1939Z" fill="#7338AC"/>
<path d="M18.1804 60.8197H19.0843V64.1027C19.2897 63.8314 19.5637 63.5872 19.8649 63.3837C20.18 63.1939 20.5772 63.0988 21.0564 63.0988C21.4672 63.0988 21.8645 63.1939 22.2206 63.3837C22.5903 63.5737 22.8779 63.8585 23.1107 64.2383C23.3299 64.6318 23.4393 65.093 23.4393 65.6492V69.095H22.5493V65.6764C22.5493 65.1474 22.3986 64.7132 22.0835 64.3876C21.7686 64.062 21.3714 63.8992 20.8784 63.8992C20.5497 63.8992 20.2485 63.9671 19.9745 64.1162C19.7006 64.2655 19.4815 64.4825 19.3308 64.7539C19.1665 65.0253 19.0843 65.3372 19.0843 65.6899V69.095H18.1804C18.1804 67.4399 18.1804 62.4748 18.1804 60.8197Z" fill="#7338AC"/>
<path d="M30.5335 68.783C30.0952 68.5116 29.7665 68.1453 29.52 67.6706C29.2873 67.2093 29.1641 66.6939 29.1641 66.1376C29.1641 65.5679 29.2873 65.066 29.52 64.6046C29.7665 64.1434 30.0952 63.7772 30.5335 63.5058C30.958 63.2346 31.4648 63.0988 32.0537 63.0988C32.5467 63.0988 32.9712 63.1939 33.3137 63.3702C33.6696 63.5602 33.9572 63.8179 34.1765 64.1434V63.1939H35.0803V69.0951H34.1765V68.1453C33.9572 68.4574 33.6696 68.7151 33.3137 68.9051C32.9712 69.0951 32.5467 69.19 32.0537 69.19C31.4648 69.19 30.958 69.0544 30.5335 68.783ZM33.2999 68.0776C33.6013 67.8741 33.834 67.6027 33.9983 67.25C34.149 66.9109 34.2312 66.5446 34.2312 66.1376C34.2312 65.7307 34.149 65.3509 33.9983 65.0116C33.834 64.686 33.6013 64.4148 33.2999 64.1977C32.985 63.9942 32.6152 63.8993 32.1633 63.8993C31.725 63.8993 31.3552 63.9942 31.0402 64.1977C30.7115 64.4148 30.4788 64.686 30.3144 65.0116C30.1363 65.3509 30.0541 65.7307 30.0541 66.1376C30.0541 66.5446 30.1363 66.9109 30.3144 67.25C30.4788 67.6027 30.7115 67.8741 31.0402 68.0776C31.3552 68.2811 31.725 68.3895 32.1633 68.3895C32.6152 68.3895 32.985 68.2811 33.2999 68.0776Z" fill="#7338AC"/>
<path d="M41.2292 63.1939H42.1195V64.1027C42.3386 63.8314 42.5989 63.5872 42.9001 63.3837C43.2151 63.1939 43.6122 63.0988 44.1052 63.0988C44.5161 63.0988 44.8996 63.1939 45.2556 63.3837C45.6254 63.5737 45.913 63.8586 46.1458 64.2384C46.3649 64.6318 46.4882 65.093 46.4882 65.6493V69.095H45.5843V65.6764C45.5843 65.1474 45.4338 64.7132 45.1187 64.3876C44.8175 64.062 44.4066 63.8993 43.9136 63.8993C43.5849 63.8993 43.2835 63.9671 43.0097 64.1163C42.7494 64.2655 42.5303 64.4825 42.366 64.7539C42.2017 65.0253 42.1195 65.3372 42.1195 65.69V69.095H41.2292C41.2292 67.9148 41.2292 64.3741 41.2292 63.1939Z" fill="#7338AC"/>
<path d="M2.43115 63.1939H3.32134V64.6453C3.36242 64.5369 3.4172 64.4011 3.51307 64.2384C3.60893 64.0621 3.73219 63.8993 3.91022 63.723C4.08827 63.5465 4.30738 63.3974 4.56758 63.2753C4.84149 63.1532 5.15647 63.0988 5.52623 63.0988H5.58103V63.9807H5.47146C5.03323 63.9807 4.64975 64.1027 4.32107 64.3334C4.0061 64.5776 3.75958 64.8895 3.58154 65.2695C3.4172 65.6493 3.32134 66.0562 3.32134 66.4904V69.095H2.43115C2.43115 67.9148 2.43115 64.3741 2.43115 63.1939Z" fill="#7338AC"/>
</svg>
