<svg width="19" height="17" viewBox="0 0 19 17" fill="none" xmlns="http://www.w3.org/2000/svg">
<path fill-rule="evenodd" clip-rule="evenodd" d="M4.18758 4.87435C4.18758 2.72274 5.93181 0.978516 8.08342 0.978516C10.235 0.978516 11.9792 2.72274 11.9792 4.87435C11.9792 7.02596 10.235 8.77018 8.08342 8.77018C5.93181 8.77018 4.18758 7.02596 4.18758 4.87435ZM8.08342 2.35352C6.6912 2.35352 5.56258 3.48213 5.56258 4.87435C5.56258 6.26657 6.6912 7.39518 8.08342 7.39518C9.47563 7.39518 10.6042 6.26657 10.6042 4.87435C10.6042 3.48213 9.47563 2.35352 8.08342 2.35352Z" fill="black"/>
<path fill-rule="evenodd" clip-rule="evenodd" d="M0.979248 13.5827C0.979248 11.6842 2.51827 10.1452 4.41675 10.1452H4.72921C4.89833 10.1452 5.06638 10.1719 5.22715 10.2244L6.02054 10.4835C7.36096 10.9212 8.80587 10.9212 10.1463 10.4835L10.9397 10.2244C11.1004 10.1719 11.2685 10.1452 11.4376 10.1452H11.7501C13.6486 10.1452 15.1876 11.6842 15.1876 13.5827V14.6719C15.1876 15.3624 14.6872 15.9511 14.0057 16.0624C10.0835 16.7027 6.08334 16.7027 2.16108 16.0624C1.47964 15.9511 0.979248 15.3624 0.979248 14.6719V13.5827ZM4.41675 11.5202C3.27766 11.5202 2.35425 12.4436 2.35425 13.5827V14.6719C2.35425 14.6885 2.36627 14.7027 2.38264 14.7053C6.15816 15.3218 10.0087 15.3218 13.7842 14.7053C13.8006 14.7027 13.8126 14.6885 13.8126 14.6719V13.5827C13.8126 12.4436 12.8892 11.5202 11.7501 11.5202H11.4376C11.4135 11.5202 11.3895 11.524 11.3665 11.5315L10.5731 11.7906C8.95534 12.3188 7.21149 12.3188 5.59373 11.7906L4.80035 11.5315C4.77738 11.524 4.75337 11.5202 4.72921 11.5202H4.41675Z" fill="black"/>
<path d="M15.8751 3.72852C16.2548 3.72852 16.5626 4.03632 16.5626 4.41602V6.02018H18.1667C18.5464 6.02018 18.8542 6.32799 18.8542 6.70768C18.8542 7.08738 18.5464 7.39518 18.1667 7.39518H16.5626V8.99935C16.5626 9.37904 16.2548 9.68685 15.8751 9.68685C15.4954 9.68685 15.1876 9.37904 15.1876 8.99935V7.39518H13.5834C13.2037 7.39518 12.8959 7.08738 12.8959 6.70768C12.8959 6.32799 13.2037 6.02018 13.5834 6.02018H15.1876V4.41602C15.1876 4.03632 15.4954 3.72852 15.8751 3.72852Z" fill="black"/>
</svg>
