<svg width="18" height="18" viewBox="0 0 18 18" fill="none" xmlns="http://www.w3.org/2000/svg">
<path fill-rule="evenodd" clip-rule="evenodd" d="M11.0626 3.04167C11.0626 1.39632 12.3964 0.0625 14.0417 0.0625C15.6871 0.0625 17.0209 1.39632 17.0209 3.04167C17.0209 4.68702 15.6871 6.02083 14.0417 6.02083C13.1621 6.02083 12.3715 5.63959 11.8261 5.03331L9.33527 6.39196L6.54813 7.98461C6.79598 8.41921 6.93758 8.92223 6.93758 9.45833C6.93758 9.72999 6.90122 9.99315 6.83311 10.2432L11.8261 12.9667C12.3715 12.3604 13.1621 11.9792 14.0417 11.9792C15.6871 11.9792 17.0209 13.313 17.0209 14.9583C17.0209 16.6037 15.6871 17.9375 14.0417 17.9375C12.3964 17.9375 11.0626 16.6037 11.0626 14.9583C11.0626 14.6867 11.0989 14.4235 11.1671 14.1734L6.17404 11.45C5.62869 12.0562 4.83808 12.4375 3.95842 12.4375C2.31307 12.4375 0.979248 11.1037 0.979248 9.45833C0.979248 7.81298 2.31307 6.47917 3.95842 6.47917C4.55487 6.47917 5.11039 6.65445 5.57626 6.95631L8.6649 5.19137L11.1671 3.82656C11.0989 3.57649 11.0626 3.31332 11.0626 3.04167ZM14.0417 1.4375C13.1558 1.4375 12.4376 2.15571 12.4376 3.04167C12.4376 3.92762 13.1558 4.64583 14.0417 4.64583C14.9277 4.64583 15.6459 3.92762 15.6459 3.04167C15.6459 2.15571 14.9277 1.4375 14.0417 1.4375ZM3.95842 7.85417C3.07246 7.85417 2.35425 8.57238 2.35425 9.45833C2.35425 10.3443 3.07246 11.0625 3.95842 11.0625C4.84437 11.0625 5.56258 10.3443 5.56258 9.45833C5.56258 8.57238 4.84437 7.85417 3.95842 7.85417ZM12.4376 14.9583C12.4376 14.0724 13.1558 13.3542 14.0417 13.3542C14.9277 13.3542 15.6459 14.0724 15.6459 14.9583C15.6459 15.8443 14.9277 16.5625 14.0417 16.5625C13.1558 16.5625 12.4376 15.8443 12.4376 14.9583Z" fill="black"/>
</svg>
