<svg width="84" height="84" viewBox="0 0 84 84" fill="none" xmlns="http://www.w3.org/2000/svg">
<path fill-rule="evenodd" clip-rule="evenodd" d="M57.0866 31.1866C58.3382 32.4383 58.3382 34.4677 57.0866 35.7193L39.9925 52.8134C38.7409 54.065 36.7115 54.065 35.4598 52.8134L26.9128 44.2663C25.6611 43.0147 25.6611 40.9853 26.9128 39.7336C28.1645 38.4819 30.1938 38.4819 31.4455 39.7336L37.7262 46.0142L52.5538 31.1866C53.8055 29.9349 55.8349 29.9349 57.0866 31.1866Z" fill="#04D700"/>
<path fill-rule="evenodd" clip-rule="evenodd" d="M41.9997 6.74357C22.5281 6.74357 6.74326 22.5284 6.74326 42C6.74326 61.4715 22.5281 77.2564 41.9997 77.2564C61.4712 77.2564 77.2561 61.4715 77.2561 42C77.2561 22.5284 61.4712 6.74357 41.9997 6.74357ZM0.333008 42C0.333008 18.9881 18.9878 0.333313 41.9997 0.333313C65.0115 0.333313 83.6663 18.9881 83.6663 42C83.6663 65.0118 65.0115 83.6666 41.9997 83.6666C18.9878 83.6666 0.333008 65.0118 0.333008 42Z" fill="#04D700"/>
</svg>
