<svg width="24" height="22" viewBox="0 0 24 22" fill="none" xmlns="http://www.w3.org/2000/svg">
<path d="M12.937 1.24592C12.5195 0.526426 11.4805 0.526423 11.063 1.24592L8.12277 6.31301C7.91653 6.66843 7.56006 6.91098 7.15374 6.97235L1.64357 7.80459C0.718096 7.94437 0.393464 9.11287 1.11421 9.71L5.21906 13.1108C5.59903 13.4256 5.77769 13.9222 5.68539 14.4069L4.61163 20.0458C4.44189 20.9372 5.37766 21.6298 6.18057 21.207L11.3691 18.4751C11.764 18.2671 12.236 18.2671 12.6309 18.4751L17.8194 21.207C18.6224 21.6298 19.5581 20.9372 19.3884 20.0458L18.3146 14.4069C18.2223 13.9222 18.401 13.4256 18.7809 13.1108L22.8858 9.71C23.6065 9.11287 23.2819 7.94438 22.3564 7.80459L16.8463 6.97235C16.4399 6.91098 16.0835 6.66843 15.8772 6.31301L12.937 1.24592Z" fill="#FFCD68"/>
</svg>
